<svg id="Слой_1" data-name="Слой 1" xmlns="http://www.w3.org/2000/svg" viewBox="0 0 8.35 7.81">
  <defs>
    <style>
      .cls-1 {
        fill: #fff;
      }
    </style>
  </defs>
  <title>proc</title>
  <path class="cls-1" d="M305.37,393a1.79,1.79,0,0,1,.26.94,1.77,1.77,0,0,1-.26.92,1.92,1.92,0,0,1-.69.68,1.85,1.85,0,0,1-.95.25,1.88,1.88,0,0,1-1-.25,1.9,1.9,0,0,1-.7-0.68,1.77,1.77,0,0,1-.26-0.92,1.79,1.79,0,0,1,.26-0.94,1.91,1.91,0,0,1,1.65-.94,1.85,1.85,0,0,1,.95.25A1.91,1.91,0,0,1,305.37,393ZM303,394a0.72,0.72,0,0,0,.22.53,0.7,0.7,0,0,0,1,0,0.72,0.72,0,0,0,.22-0.53,0.73,0.73,0,0,0-.22-0.54,0.7,0.7,0,0,0-1,0A0.73,0.73,0,0,0,303,394Zm1.12,5.94-1.08-.7,4.8-7,1.06,0.68Zm5.79-2.87a1.78,1.78,0,0,1,0,1.85,1.92,1.92,0,0,1-.69.68,1.85,1.85,0,0,1-.95.25,1.88,1.88,0,0,1-1-.25,1.9,1.9,0,0,1-.7-0.68,1.78,1.78,0,0,1,0-1.85,1.9,1.9,0,0,1,.7-0.68,1.88,1.88,0,0,1,1-.25,1.85,1.85,0,0,1,.95.25A1.92,1.92,0,0,1,309.92,397Zm-2.36.92a0.72,0.72,0,0,0,.22.53,0.7,0.7,0,0,0,1,0,0.75,0.75,0,0,0,0-1.06,0.7,0.7,0,0,0-1,0A0.72,0.72,0,0,0,307.56,398Z" transform="translate(-301.83 -392.1)"/>
</svg>
