<svg id="Слой_1" data-name="Слой 1" xmlns="http://www.w3.org/2000/svg" viewBox="0 0 57.75 53.78">
  <defs>
    <style>
      .cls-1 {
        fill: #fff;
      }
    </style>
  </defs>
  <title>tasks</title>
  <g>
    <path class="cls-1" d="M55.25,9.4H24.53a2.5,2.5,0,0,1,0-5H55.25a2.5,2.5,0,1,1,0,5m-54-.2a9.09,9.09,0,0,1,3.33,3.33,2.5,2.5,0,0,0,2.07,1.25H6.76a2.5,2.5,0,0,0,2-1.07A32.46,32.46,0,0,1,17,4.56,2.5,2.5,0,1,0,14.11.45,37.38,37.38,0,0,0,6.76,7.17a14,14,0,0,0-3-2.31A2.51,2.51,0,0,0,1.25,9.2" transform="translate(0 0)"/>
    <path class="cls-1" d="M55.25,29.4H24.53a2.5,2.5,0,0,1,0-5H55.25a2.5,2.5,0,0,1,0,5m-54-.2a9.09,9.09,0,0,1,3.33,3.33,2.5,2.5,0,0,0,2.07,1.25H6.76a2.5,2.5,0,0,0,2-1.07A32.46,32.46,0,0,1,17,24.56a2.5,2.5,0,1,0-2.85-4.11,37.38,37.38,0,0,0-7.35,6.72,14,14,0,0,0-3-2.31A2.51,2.51,0,0,0,1.25,29.2" transform="translate(0 0)"/>
    <path class="cls-1" d="M55.25,49.4H24.53a2.5,2.5,0,0,1,0-5H55.25a2.5,2.5,0,0,1,0,5m-54-.2a9.08,9.08,0,0,1,3.33,3.33,2.5,2.5,0,0,0,2.07,1.25H6.76a2.5,2.5,0,0,0,2-1.07A32.44,32.44,0,0,1,17,44.56a2.5,2.5,0,1,0-2.85-4.11,37.38,37.38,0,0,0-7.35,6.72,14,14,0,0,0-3-2.31A2.51,2.51,0,0,0,1.25,49.2" transform="translate(0 0)"/>
  </g>
</svg>
